<?xml version="1.0" encoding="UTF-8"?>
<svg id="Capa_2" data-name="Capa 2" xmlns="http://www.w3.org/2000/svg" viewBox="0 0 210.93 87.44">
  <defs>
    <style>
      .cls-1 {
        fill: #fff;
      }
    </style>
  </defs>
  <g id="Capa_1-2" data-name="Capa 1">
    <g>
      <path class="cls-1" d="M40.32,49.2c-14.05,6.42-18.08,15.77-18.08,15.77,0,0-3.94-9.32-17.85-15.67-.31-.14-.61-.27-.89-.4l-3.16,6.17c.37.16.77.33,1.17.52,11.4,5.19,17.28,14.18,17.28,18.22v13.63h6.92v-13.65c0-5.59,8.53-14.27,17.46-18.28.34-.15.66-.3.97-.43l-3.16-6.17c-.21.1-.44.19-.66.3Z"/>
      <path class="cls-1" d="M22.24,0l-3.45,6.74L0,43.46s2.17.69,5.23,2.05c.24.11.49.22.74.33,5.2,2.38,12.49,6.5,16.27,12.22,3.84-5.81,11.29-9.97,16.51-12.33.17-.08.33-.15.49-.22,3.06-1.35,5.24-2.05,5.24-2.05L25.84,7.02l-3.59-7.02Z"/>
      <path class="cls-1" d="M85.9,31.83c.72-1.94,1.04-3.63.95-5.07-.08-1.45-.54-2.64-1.37-3.57-.83-.94-1.97-1.64-3.43-2.12-1.46-.48-3.21-.71-5.24-.71h-13.15l-11.66,31.45h7.67l3.2-8.62h3.86c3.3,0,6.22-.43,8.74-1.29,2.53-.86,4.66-2.13,6.42-3.81,1.75-1.68,3.09-3.76,4.01-6.24ZM78.25,31.64c-.75,2.03-1.8,3.48-3.13,4.34-1.33.86-3.03,1.29-5.1,1.29h-4.96l4.1-11.05h5.24c2.03,0,3.35.46,3.94,1.38.6.92.56,2.27-.1,4.05Z"/>
      <polygon class="cls-1" points="90.37 51.79 103.08 17.49 95.56 17.49 82.84 51.79 90.37 51.79"/>
      <path class="cls-1" d="M126.78,31.85c-.39-1.95-1.38-3.42-2.99-4.41-1.61-.98-3.69-1.48-6.27-1.48s-4.98.49-7.31,1.45c-2.33.97-4.41,2.43-6.25,4.38s-3.3,4.41-4.4,7.36c-1.1,2.95-1.45,5.42-1.07,7.39.38,1.97,1.37,3.45,2.96,4.43s3.67,1.48,6.24,1.48,4.88-.47,7.22-1.41c2.33-.94,4.44-2.39,6.31-4.36,1.87-1.97,3.37-4.46,4.49-7.48,1.1-2.95,1.45-5.41,1.06-7.36ZM117.82,39.69c-.59,1.59-1.27,2.92-2.06,4-.78,1.08-1.65,1.88-2.61,2.41-.96.52-2.01.79-3.15.79-1.78,0-2.91-.65-3.4-1.95-.49-1.3-.25-3.26.72-5.86.6-1.62,1.29-2.97,2.07-4.05.78-1.08,1.66-1.88,2.63-2.41.97-.52,2.02-.79,3.13-.79,1.27,0,2.2.31,2.78.93.58.62.86,1.51.84,2.67-.02,1.16-.34,2.58-.96,4.26Z"/>
      <path class="cls-1" d="M144.79,44.19c-.59.75-1.34,1.37-2.22,1.88s-1.95.76-3.19.76-2.17-.29-2.8-.86c-.63-.57-.95-1.42-.96-2.55-.01-1.13.3-2.53.92-4.22.44-1.17.93-2.22,1.49-3.12s1.16-1.67,1.81-2.31c.65-.64,1.33-1.11,2.05-1.43.72-.32,1.48-.48,2.27-.48s1.41.15,1.95.45c.54.3.9.79,1.08,1.45.18.67.13,1.52-.17,2.57l8-2.43c.21-1.59.05-2.98-.48-4.17-.53-1.19-1.43-2.12-2.71-2.79-1.28-.67-2.96-1-5.06-1s-4.03.33-5.89.98c-1.86.65-3.58,1.58-5.15,2.79-1.58,1.21-2.96,2.64-4.16,4.29-1.2,1.65-2.18,3.49-2.93,5.53-.73,1.97-1.1,3.75-1.1,5.34,0,1.59.35,2.95,1.06,4.07.71,1.13,1.78,1.99,3.21,2.6,1.43.6,3.22.9,5.38.9,1.97,0,3.75-.24,5.34-.71,1.59-.48,3.02-1.14,4.28-1.98s2.35-1.8,3.26-2.88c.91-1.08,1.64-2.21,2.21-3.38l-6.11-1.52c-.33.73-.8,1.47-1.39,2.22Z"/>
      <path class="cls-1" d="M174.88,36.36c1.72-.73,3.29-1.61,4.72-2.64,1.43-1.03,2.74-2.16,3.92-3.38,1.18-1.22,2.21-2.45,3.08-3.69h-8.77c-.76.92-1.57,1.82-2.45,2.69-.88.87-1.81,1.72-2.8,2.55-.99.83-2.03,1.62-3.12,2.38-1.09.76-2.22,1.48-3.39,2.14l7.03-18.96h-7.53l-12.74,34.35h7.53l3.67-9.91h2.14c1.49,0,2.52.31,3.09.93.56.62.85,1.49.86,2.62.01,1.13-.11,2.47-.37,4.03l-.39,2.34h8.34l.45-3.91c.14-1.24.21-2.49.2-3.76s-.27-2.39-.8-3.36c-.53-.97-1.45-1.67-2.77-2.1s-3.22-.42-5.7.02l.32-.86c1.94-.25,3.76-.75,5.48-1.48Z"/>
      <path class="cls-1" d="M210.9,30.95c-.15-1.7-.87-2.95-2.18-3.76-1.3-.81-3.23-1.22-5.77-1.22-1.56,0-3.06.15-4.5.45-1.45.3-2.81.78-4.1,1.43-1.29.65-2.49,1.46-3.59,2.43-1.11.97-2.13,2.12-3.07,3.45l6.01,2.05c.57-.86,1.22-1.59,1.96-2.19.73-.6,1.52-1.06,2.37-1.38.85-.32,1.72-.48,2.61-.48,1.27,0,2.09.29,2.45.86.36.57.39,1.26.1,2.05-.22.6-.55,1.07-.99,1.38-.44.32-.99.55-1.66.69-.67.14-1.5.29-2.48.45-2.01.29-3.84.61-5.48.98-1.65.37-3.1.83-4.37,1.38-1.27.56-2.36,1.3-3.26,2.24s-1.62,2.12-2.15,3.55c-.57,1.52-.74,2.82-.53,3.88.21,1.07.75,1.87,1.62,2.43.87.56,2.01.83,3.41.83,1.49,0,2.94-.28,4.34-.83,1.4-.55,2.7-1.33,3.91-2.31,1.21-.98,2.26-2.08,3.15-3.29h.95c-.34,1.08-.63,2.13-.88,3.14-.25,1.02-.45,1.89-.59,2.62h6.77c.31-1.17.64-2.34.99-3.5.35-1.16.72-2.32,1.1-3.48s.79-2.31,1.21-3.45l1.43-3.86c.99-2.67,1.41-4.85,1.26-6.55ZM200.3,42.79c-.49.64-1.05,1.22-1.69,1.74-.64.52-1.3.97-1.97,1.33-.68.37-1.35.65-2.01.86-.67.21-1.28.31-1.85.31-.95,0-1.63-.27-2.03-.81-.4-.54-.44-1.25-.11-2.14.25-.67.6-1.19,1.06-1.57.46-.38,1.01-.68,1.65-.9.64-.22,1.34-.41,2.11-.55.77-.14,1.55-.28,2.34-.4.79-.13,1.6-.3,2.41-.52.4-.11.78-.24,1.16-.38l-1.05,3.05Z"/>
      <path class="cls-1" d="M59.02,68.09c-2.21,0-4.14-1.95-4.14-4.71s1.93-4.71,4.14-4.71c1.91,0,3.11,1.33,3.53,2.7h2.23c-.6-2.49-2.7-4.78-5.76-4.78-3.41,0-6.32,2.96-6.32,6.79s2.91,6.79,6.32,6.79c3.15,0,5.27-2.34,5.85-4.78h-2.23c-.47,1.37-1.69,2.7-3.62,2.7Z"/>
      <path class="cls-1" d="M71.74,56.71c-.67,0-1.22.53-1.22,1.22s.54,1.2,1.22,1.2,1.2-.52,1.2-1.2-.52-1.22-1.2-1.22Z"/>
      <rect class="cls-1" x="70.71" y="60.46" width="2.06" height="9.49"/>
      <path class="cls-1" d="M81.19,61.51h-.09l-.37-1.05h-1.54v9.49h2.06v-5.25c0-1.52.92-2.4,2.23-2.4.34,0,.58,0,.84.08v-2.06c-.23-.06-.45-.07-.79-.07-1.22,0-2.08.9-2.34,1.28Z"/>
      <path class="cls-1" d="M93.55,62.14c1.35,0,2.1,1.01,2.33,1.8h2.06c-.38-1.88-2.03-3.71-4.39-3.71-2.57,0-4.71,2.19-4.71,4.97s2.14,4.97,4.71,4.97c2.36,0,4.01-1.86,4.39-3.71h-2.06c-.23.77-.98,1.8-2.33,1.8-1.46,0-2.66-1.26-2.66-3.06s1.2-3.06,2.66-3.06Z"/>
      <path class="cls-1" d="M110.05,65.88c0,1.41-.92,2.38-2.21,2.38s-2.16-.98-2.16-2.38v-5.42h-2.06v5.57c0,2.51,1.58,4.14,3.81,4.14,1.41,0,2.36-.88,2.66-1.29h.09l.38,1.07h1.54v-9.49h-2.04v5.42Z"/>
      <rect class="cls-1" x="118.53" y="60.46" width="2.06" height="9.49"/>
      <path class="cls-1" d="M119.56,56.71c-.68,0-1.22.53-1.22,1.22s.54,1.2,1.22,1.2,1.2-.52,1.2-1.2-.52-1.22-1.2-1.22Z"/>
      <path class="cls-1" d="M129.69,58.02h-1.78v1.43c0,.73-.39,1.13-1.14,1.13h-.67v1.74h1.56v4.56c0,2.08,1.26,3.3,2.98,3.3.51,0,.86-.09,1.13-.19v-1.88c-.21.09-.41.13-.66.13-.84,0-1.41-.49-1.41-1.54v-4.39h2.06v-1.86h-2.06v-2.44Z"/>
      <path class="cls-1" d="M141.62,60.23c-2.57,0-4.71,2.19-4.71,4.97s2.14,4.97,4.71,4.97,4.71-2.21,4.71-4.97-2.14-4.97-4.71-4.97ZM141.62,68.26c-1.46,0-2.66-1.26-2.66-3.06s1.2-3.06,2.66-3.06,2.66,1.26,2.66,3.06-1.2,3.06-2.66,3.06Z"/>
      <polygon class="cls-1" points="164.44 67.45 161.91 60.46 159.73 60.46 163.41 69.95 165.4 69.95 169.07 60.46 166.97 60.46 164.44 67.45"/>
      <path class="cls-1" d="M175.37,56.71c-.68,0-1.22.53-1.22,1.22s.54,1.2,1.22,1.2,1.2-.52,1.2-1.2-.52-1.22-1.2-1.22Z"/>
      <rect class="cls-1" x="174.34" y="60.46" width="2.06" height="9.49"/>
      <polygon class="cls-1" points="186.38 67.45 183.85 60.46 181.68 60.46 185.35 69.95 187.34 69.95 191.02 60.46 188.92 60.46 186.38 67.45"/>
      <path class="cls-1" d="M200.15,60.23c-2.57,0-4.71,2.19-4.71,4.97s2.14,4.97,4.71,4.97,4.71-2.21,4.71-4.97-2.14-4.97-4.71-4.97ZM200.15,68.26c-1.46,0-2.66-1.26-2.66-3.06s1.2-3.06,2.66-3.06,2.66,1.26,2.66,3.06-1.2,3.06-2.66,3.06Z"/>
    </g>
  </g>
</svg>